<svg xmlns="http://www.w3.org/2000/svg" width="15" height="15" fill="currentColor" style=""><rect id="backgroundrect" width="100%" height="100%" x="0" y="0" fill="none" stroke="none"/>
  
  
<g class="currentLayer" style=""><title>Layer 1</title><path d="M14.502,1.4403930926322936 a0.5,0.5 0 0 1 0,0.7060000000000001 L13.459,3.190393092632294 l-2,-2 L12.502,0.14639309263229383 a0.5,0.5 0 0 1 0.7070000000000001,0 l1.2930000000000001,1.2930000000000001 zm-1.75,2.456 l-2,-2 L3.939,8.710393092632295 a0.5,0.5 0 0 0 -0.12100000000000001,0.19600000000000004 l-0.805,2.414 a0.25,0.25 0 0 0 0.31600000000000006,0.31600000000000006 l2.414,-0.805 a0.5,0.5 0 0 0 0.19600000000000004,-0.12000000000000001 l6.813,-6.814 z" id="svg_1" class="" fill="#ffffff" fill-opacity="1"/><path fill-rule="evenodd" d="M0,13.000393092632294 A1.5,1.5 0 0 0 1.5,14.500393092632294 h11 a1.5,1.5 0 0 0 1.5,-1.5 v-6 a0.5,0.5 0 0 0 -1,0 v6 a0.5,0.5 0 0 1 -0.5,0.5 h-11 a0.5,0.5 0 0 1 -0.5,-0.5 v-11 a0.5,0.5 0 0 1 0.5,-0.5 H8 a0.5,0.5 0 0 0 0,-1 H1.5 A1.5,1.5 0 0 0 0,2.0003930926322937 v11 z" id="svg_2" class="" fill="#ffffff" fill-opacity="1"/></g></svg>