<svg xmlns="http://www.w3.org/2000/svg" width="16" height="16" fill="currentColor" style=""><rect id="backgroundrect" width="100%" height="100%" x="0" y="0" fill="none" stroke="#ffffff" class="" style="" stroke-opacity="1"/>
  
<g class="currentLayer" style=""><title>Layer 1</title><path fill-rule="evenodd" d="M0.1316326513886452,3.065204076766968 A2,2 0 0 1 2.081632651388645,1.5102040767669678 h12 a2,2 0 0 1 1.9500000000000002,1.5550000000000002 L8.081632651388645,7.9242040767669675 L0.1316326513886452,3.065204076766968 zM0.08163265138864517,4.207204076766968 v7.104 l5.803,-3.558 L0.08163265138864517,4.207204076766968 zM6.842632651388645,8.340204076766968 l-6.57,4.027 A2,2 0 0 0 2.081632651388645,13.510204076766968 h12 a2,2 0 0 0 1.808,-1.1440000000000001 l-6.57,-4.027 L8.081632651388645,9.096204076766968 l-1.239,-0.7570000000000001 zm3.436,-0.5860000000000001 L16.081632651388645,11.311204076766968 V4.207204076766968 l-5.803,3.5460000000000003 z" id="svg_1" class="selected" stroke="#ffffff" stroke-opacity="1" fill="#ffffff" fill-opacity="1"/></g></svg>